<svg xmlns="http://www.w3.org/2000/svg" fill="none" viewBox="0 0 30 30">
  <path fill="#717173" fill-rule="evenodd" d="M.585754 26.3137c-.781005.781-.781005 2.0474 0 2.8284.781126.7811 2.047366.7811 2.828496 0L14.728 17.8285l11.3136 11.3136c.7811.7811 2.0473.7811 2.8285 0 .781-.781.781-2.0474 0-2.8284L17.5563 15 28.8701 3.6863c.781-.78106.781-2.04739 0-2.828428-.781-.7810364-2.0474-.7810364-2.8284 0L14.728 12.1716 3.41412.857872c-.781-.7810364-2.04736-.7810364-2.828366 0-.781005.781038-.781005 2.047368 0 2.828428L11.8995 15 .585754 26.3137z" clip-rule="evenodd"/>
</svg>